<svg xmlns="http://www.w3.org/2000/svg" width="58.832" height="50" viewBox="0 0 58.832 50">
    <g id="Group_13" data-name="Group 13" transform="translate(-8 -14.005)">
        <path id="Path_16" data-name="Path 16" d="M65.362,19.9H46.241v-4.42a1.47,1.47,0,0,0-1.469-1.471H30.062a1.469,1.469,0,0,0-1.471,1.469V19.9H9.471A1.469,1.469,0,0,0,8,21.364v41.17a1.47,1.47,0,0,0,1.469,1.471H65.362a1.471,1.471,0,0,0,1.471-1.469h0V21.366A1.47,1.47,0,0,0,65.363,19.9ZM31.533,16.947H43.3V22.83H31.533ZM63.891,61.064H10.942V22.837h17.65V24.3a1.47,1.47,0,0,0,1.469,1.471H44.77A1.471,1.471,0,0,0,46.241,24.3h0V22.837h17.65Z" transform="translate(0)" fill="#bcc6cf"/>
        <path id="Path_17" data-name="Path 17" d="M57.471,46.005a1.471,1.471,0,0,0,0,2.942H69.237a1.471,1.471,0,1,0,0-2.942Z" transform="translate(-12.701 -8.467)" fill="#bcc6cf"/>
        <path id="Path_18" data-name="Path 18" d="M69.238,62.005H57.472a1.471,1.471,0,0,0,0,2.942H69.238a1.471,1.471,0,1,0,0-2.942Z" transform="translate(-12.701 -12.701)" fill="#bcc6cf"/>
        <path id="Path_19" data-name="Path 19" d="M69.237,54.005H57.471a1.471,1.471,0,0,0,0,2.942H69.237a1.471,1.471,0,1,0,0-2.942Z" transform="translate(-12.701 -10.584)" fill="#bcc6cf"/>
        <path id="Path_20" data-name="Path 20" d="M35.752,50.226a7.354,7.354,0,1,0-10.914,0A7.345,7.345,0,0,0,20,57.109v2.942a1.47,1.47,0,0,0,1.469,1.471H39.121a1.47,1.47,0,0,0,1.471-1.469h0V57.109A7.345,7.345,0,0,0,35.752,50.226ZM30.3,40.93a4.412,4.412,0,1,1-4.412,4.412A4.412,4.412,0,0,1,30.3,40.93ZM37.65,58.58H22.942V57.109A4.418,4.418,0,0,1,27.354,52.7h5.883a4.418,4.418,0,0,1,4.412,4.412Z" transform="translate(-3.175 -6.334)" fill="#bcc6cf"/>
    </g>
</svg>
