<svg xmlns="http://www.w3.org/2000/svg" width="42.5" height="42.5" viewBox="0 0 42.5 42.5">
    <path id="Path_12" data-name="Path 12" d="M241.839,488.018a21.25,21.25,0,1,1,21.25-21.25A21.25,21.25,0,0,1,241.839,488.018Zm14.247-22.178L248.824,459a.9.9,0,0,0-.627-.235,1.3,1.3,0,0,0-1.231,1.056l-.626,3.665-4.854-.009-2.451,1.787-1.846-1.795-2.451,1.787-1.846-1.795L227.279,467l3.091,2.906,14.868.028-.609,3.565a.929.929,0,0,0,.122.666,1.008,1.008,0,0,0,1.456.154l9.6-6.849a1.354,1.354,0,0,0,.176-.15A1.041,1.041,0,0,0,256.086,465.84Z" transform="translate(-220.589 -445.518)" fill="#4490dd"/>
</svg>
