<svg xmlns="http://www.w3.org/2000/svg" width="50.003" height="50" viewBox="0 0 50.003 50">
    <path id="Path_15" data-name="Path 15" d="M25.133.8A25.037,25.037,0,0,0,23.75,50.78a1.927,1.927,0,0,0,.444-3.829l-.116-.007A21.185,21.185,0,1,1,46.944,24.063a1.928,1.928,0,0,0,3.851-.175l-.015-.138A25.068,25.068,0,0,0,25.133.8Zm.67,7.659a1.933,1.933,0,0,0-1.893,1.966h0v15.4a1.928,1.928,0,0,0,.568,1.369L35.369,38.1a1.93,1.93,0,0,0,2.73-2.73L27.761,25.031v-14.6a1.927,1.927,0,0,0-1.886-1.966ZM48.116,29.887a2,2,0,0,0-.917.262,1.924,1.924,0,1,0,2.635.706h-.007A1.931,1.931,0,0,0,48.116,29.887Zm-5.94,10.367A1.926,1.926,0,1,0,44.1,42.176,1.92,1.92,0,0,0,42.176,40.254ZM31.729,46.238a1.922,1.922,0,1,0,1.056.255h-.007A1.9,1.9,0,0,0,31.729,46.238Z" transform="translate(-0.794 -0.794)" fill="#bcc6cf"/>
</svg>
